<svg width="20" height="22" viewBox="0 0 20 22" fill="none" xmlns="http://www.w3.org/2000/svg">
<path d="M19 6.35223V15.6462C19.0001 15.7534 18.9714 15.8585 18.9171 15.9509C18.8627 16.0432 18.7847 16.1193 18.691 16.1712L10.291 20.8372C10.202 20.8866 10.1018 20.9125 10 20.9125C9.89818 20.9125 9.79804 20.8866 9.709 20.8372L1.309 16.1712C1.21532 16.1193 1.13725 16.0432 1.08292 15.9509C1.02858 15.8585 0.999948 15.7534 1 15.6462V6.35223C1.00013 6.24527 1.02884 6.1403 1.08317 6.04817C1.1375 5.95604 1.21547 5.8801 1.309 5.82823L9.709 1.16123C9.79804 1.11185 9.89818 1.08594 10 1.08594C10.1018 1.08594 10.202 1.11185 10.291 1.16123L18.691 5.82823C18.7845 5.8801 18.8625 5.95604 18.9168 6.04817C18.9712 6.1403 18.9999 6.24527 19 6.35223Z" stroke="#111111" stroke-width="1.5" stroke-linecap="round" stroke-linejoin="round"/>
<path d="M1.52808 6.29334L9.70808 10.8373C9.79724 10.8869 9.89757 10.9129 9.99958 10.9129C10.1016 10.9129 10.2019 10.8869 10.2911 10.8373L18.5001 6.27734M10.0001 19.9993V10.9993" stroke="#111111" stroke-width="1.5" stroke-linecap="round" stroke-linejoin="round"/>
</svg>
