<svg width="24" height="24" viewBox="0 0 24 24" fill="none" xmlns="http://www.w3.org/2000/svg">
<path d="M21 7.35223V16.6462C21.0001 16.7534 20.9714 16.8585 20.9171 16.9509C20.8627 17.0432 20.7847 17.1193 20.691 17.1712L12.291 21.8372C12.202 21.8866 12.1018 21.9125 12 21.9125C11.8982 21.9125 11.798 21.8866 11.709 21.8372L3.309 17.1712C3.21532 17.1193 3.13725 17.0432 3.08292 16.9509C3.02858 16.8585 2.99995 16.7534 3 16.6462V7.35223C3.00013 7.24527 3.02884 7.1403 3.08317 7.04817C3.1375 6.95604 3.21547 6.8801 3.309 6.82823L11.709 2.16123C11.798 2.11185 11.8982 2.08594 12 2.08594C12.1018 2.08594 12.202 2.11185 12.291 2.16123L20.691 6.82823C20.7845 6.8801 20.8625 6.95604 20.9168 7.04817C20.9712 7.1403 20.9999 7.24527 21 7.35223Z" stroke="white" stroke-width="1.5" stroke-linecap="round" stroke-linejoin="round"/>
<path d="M3.52795 7.29334L11.708 11.8373C11.7971 11.8869 11.8974 11.9129 11.9995 11.9129C12.1015 11.9129 12.2018 11.8869 12.291 11.8373L20.5 7.27734M12 20.9993V11.9993" stroke="white" stroke-width="1.5" stroke-linecap="round" stroke-linejoin="round"/>
</svg>
