<svg aria-hidden="true" style="position: absolute; width: 0; height: 0; overflow: hidden;" version="1.1" xmlns="http://www.w3.org/2000/svg" xmlns:xlink="http://www.w3.org/1999/xlink">
<defs>
<symbol id="icon-Button" viewBox="0 0 32 32">
<path stroke-linejoin="round" stroke-linecap="round" stroke-miterlimit="4" stroke-width="1.2" d="M16 21.332c2.946 0 5.333-2.388 5.333-5.333s-2.388-5.333-5.333-5.333c-2.946 0-5.333 2.388-5.333 5.333s2.388 5.333 5.333 5.333z"></path>
<path stroke-linejoin="miter" stroke-linecap="butt" stroke-miterlimit="4" stroke-width="1.2" d="M4 24v-16c0-2.209 1.791-4 4-4h16c2.209 0 4 1.791 4 4v16c0 2.209-1.791 4-4 4h-16c-2.209 0-4-1.791-4-4z"></path>
<path stroke-linejoin="round" stroke-linecap="round" stroke-miterlimit="4" stroke-width="1.2" d="M23.333 8.679l0.013-0.015"></path>
</symbol>
<symbol id="icon-linkedin" viewBox="0 0 32 32">
<path stroke-linejoin="round" stroke-linecap="round" stroke-miterlimit="4" stroke-width="1.2" d="M28 8v16c0 2.209-1.791 4-4 4h-16c-2.209 0-4-1.791-4-4v-16c0-2.209 1.791-4 4-4h16c2.209 0 4 1.791 4 4z"></path>
<path stroke-linejoin="round" stroke-linecap="round" stroke-miterlimit="4" stroke-width="1.2" d="M9.333 22.666v-9.333"></path>
<path stroke-linejoin="round" stroke-linecap="round" stroke-miterlimit="4" stroke-width="1.2" d="M14.667 22.666v-4.333M14.667 13.332v5M14.667 18.332c0-5 8-5 8 0v4.333"></path>
<path stroke-linejoin="round" stroke-linecap="round" stroke-miterlimit="4" stroke-width="1.2" d="M9.333 9.348l0.013-0.015"></path>
</symbol>
<symbol id="icon-Button-2" viewBox="0 0 32 32">
<path stroke-linejoin="round" stroke-linecap="round" stroke-miterlimit="4" stroke-width="1.2" d="M28 8v16c0 2.209-1.791 4-4 4h-16c-2.209 0-4-1.791-4-4v-16c0-2.209 1.791-4 4-4h16c2.209 0 4 1.791 4 4z"></path>
<path stroke-linejoin="round" stroke-linecap="round" stroke-miterlimit="4" stroke-width="1.2" d="M13.333 16c-2.209 0-4 1.791-4 4s1.791 4 4 4c2.209 0 4-1.791 4-4v-12c0.444 1.333 2.133 4 5.333 4"></path>
</symbol>
<symbol id="icon-facebook" viewBox="0 0 32 32">
<path stroke-linejoin="round" stroke-linecap="round" stroke-miterlimit="4" stroke-width="1.2" d="M28 8v16c0 2.209-1.791 4-4 4h-16c-2.209 0-4-1.791-4-4v-16c0-2.209 1.791-4 4-4h16c2.209 0 4 1.791 4 4z"></path>
<path stroke-linejoin="round" stroke-linecap="round" stroke-miterlimit="4" stroke-width="1.2" d="M14.667 28c0-4 0-8 0-12-0-2.917 0.667-5.333 5.333-5.333"></path>
<path stroke-linejoin="round" stroke-linecap="round" stroke-miterlimit="4" stroke-width="1.2" d="M12 17.334h8"></path>
</symbol>
<symbol id="icon-logo" viewBox="0 0 70 32">
<path d="M50.047 28.097c-3.781 0-7.052-1.614-9.239-4.18h-4.737c2.721 4.862 7.902 8.083 13.976 8.083 6.061 0 11.232-3.221 13.946-8.083h-4.727c-2.177 2.566-5.438 4.18-9.22 4.18z"></path>
<path d="M50.047 3.903c3.752 0 6.986 1.568 9.167 4.091h4.737c-2.724-4.812-7.872-7.994-13.903-7.994-6.044 0-11.202 3.182-13.933 7.991h4.746c2.187-2.52 5.435-4.088 9.187-4.088z"></path>
<path d="M1.311 10.606c-0.662 0-1.311 0.007-1.311 0.313v10.063c0 0.313 0.649 0.32 1.311 0.32 0.655 0 1.304-0.007 1.304-0.32v-10.063c0-0.306-0.649-0.313-1.304-0.313z"></path>
<path d="M14.141 10.88c0-0.29-0.672-0.29-1.341-0.29-0.754 0-1.495 0-1.617 0.267l-2.339 5.517-2.349-5.517c-0.115-0.267-0.87-0.267-1.617-0.267-0.672 0-1.341 0-1.341 0.29 0 0.030 0.016 0.076 0.040 0.122l4.819 10.244c0.076 0.152 0.273 0.161 0.458 0.161 0.161 0 0.366-0.007 0.451-0.161l4.809-10.251c0.010-0.036 0.026-0.076 0.026-0.115z"></path>
<path d="M18.172 10.659c-0.076-0.152-0.26-0.152-0.451-0.152s-0.382 0-0.458 0.152l-4.891 10.237c-0.023 0.046-0.030 0.082-0.030 0.115 0 0.29 0.655 0.29 1.311 0.29 0.738 0 1.472-0.007 1.578-0.25l0.55-1.334h3.897l0.54 1.334c0.099 0.244 0.83 0.25 1.571 0.25 0.655 0 1.318-0.016 1.318-0.29 0-0.030-0.007-0.069-0.030-0.105l-4.905-10.247zM16.716 17.596l1.021-2.378 1.021 2.378h-2.042z"></path>
<path d="M31.977 10.606c-0.655 0-1.304 0-1.304 0.313v5.372l-5.748-5.685c-0.115-0.099-0.296-0.099-0.481-0.099-0.191 0-0.372 0-0.372 0.227v10.251c0 0.313 0.649 0.313 1.304 0.313s1.304 0 1.304-0.32v-5.241l5.761 5.563c0.105 0.099 0.296 0.099 0.481 0.099 0.191 0 0.366 0 0.366-0.237v-10.244c0-0.313-0.649-0.313-1.311-0.313z"></path>
<path d="M40.422 13.159c0.807 0 1.677 0.244 2.349 0.718 0.040 0.023 0.069 0.040 0.105 0.040 0.26 0 0.573-0.504 0.8-1.038 0.138-0.329 0.306-0.794 0.306-1.097 0-0.122-0.030-0.214-0.099-0.26-0.985-0.708-2.065-0.991-3.492-0.991-3.195 0-5.517 2.325-5.517 5.428s2.325 5.435 5.517 5.435c1.426 0 2.507-0.306 3.492-0.998 0.076-0.046 0.099-0.152 0.099-0.283 0-0.313-0.161-0.794-0.306-1.127-0.26-0.586-0.563-0.975-0.794-0.975-0.040 0-0.076 0.007-0.115 0.030-0.679 0.458-1.538 0.708-2.349 0.708-1.439 0-2.721-1.136-2.721-2.79 0.003-1.663 1.281-2.8 2.724-2.8z"></path>
<path d="M50.034 10.531c-3.027 0-5.481 2.431-5.481 5.428 0 3.004 2.454 5.435 5.481 5.435s5.481-2.431 5.481-5.435c0-2.997-2.454-5.428-5.481-5.428zM50.034 18.726c-1.509 0-2.652-1.219-2.652-2.767 0-1.555 1.143-2.76 2.652-2.76s2.645 1.206 2.645 2.76c0 1.545-1.136 2.767-2.645 2.767z"></path>
<path d="M67.587 10.682c-0.046-0.184-0.227-0.191-0.428-0.191-0.191 0-0.382 0-0.464 0.138l-3.567 6.304-3.567-6.304c-0.092-0.138-0.273-0.138-0.471-0.138-0.191 0-0.382 0-0.428 0.191l-2.431 10.237c-0.007 0.023-0.007 0.040-0.007 0.063 0 0.306 0.662 0.306 1.334 0.306 0.708 0 1.41 0 1.486-0.273l1.067-4.954 2.605 5.040c0.082 0.145 0.244 0.145 0.412 0.145 0.161 0 0.319 0 0.395-0.145l2.622-5.040 1.067 4.954c0.069 0.273 0.771 0.273 1.479 0.273 0.672 0 1.334 0 1.334-0.306 0-0.023 0-0.040-0.007-0.063l-2.431-10.237z"></path>
</symbol>
<symbol id="icon-mobile-menu" viewBox="0 0 32 32">
<path stroke-linejoin="round" stroke-linecap="round" stroke-miterlimit="4" stroke-width="2.5" d="M4 16h24"></path>
<path stroke-linejoin="round" stroke-linecap="round" stroke-miterlimit="4" stroke-width="2.5" d="M4 8h24"></path>
<path stroke-linejoin="round" stroke-linecap="round" stroke-miterlimit="4" stroke-width="2.5" d="M4 24h24"></path>
</symbol>
</defs>
</svg>
