<svg width="24" height="24" viewBox="0 0 24 24" fill="none" xmlns="http://www.w3.org/2000/svg">
<path d="M6.635 8.47897L11 11.004L15.365 8.47897M11 16.039V10.999M15.5 12.999V8.99897C15.4998 8.82361 15.4535 8.65138 15.3658 8.49956C15.278 8.34773 15.1519 8.22166 15 8.13397L11.5 6.13397C11.348 6.04621 11.1755 6 11 6C10.8245 6 10.652 6.04621 10.5 6.13397L7 8.13397C6.84813 8.22166 6.72199 8.34773 6.63423 8.49956C6.54647 8.65138 6.50018 8.82361 6.5 8.99897V12.999C6.50018 13.1743 6.54647 13.3466 6.63423 13.4984C6.72199 13.6502 6.84813 13.7763 7 13.864L10.5 15.864C10.652 15.9517 10.8245 15.9979 11 15.9979C11.1755 15.9979 11.348 15.9517 11.5 15.864L15 13.864C15.1519 13.7763 15.278 13.6502 15.3658 13.4984C15.4535 13.3466 15.4998 13.1743 15.5 12.999Z" stroke="#FFC907" stroke-linecap="round" stroke-linejoin="round"/>
<path d="M17 17L21 21" stroke="#FFC907" stroke-width="1.5" stroke-linecap="round" stroke-linejoin="round"/>
<path d="M3 11C3 15.4183 6.58172 19 11 19C13.213 19 15.2161 18.1015 16.6644 16.6493C18.1077 15.2022 19 13.2053 19 11C19 6.58172 15.4183 3 11 3C6.58172 3 3 6.58172 3 11Z" stroke="#FFC907" stroke-width="1.5" stroke-linecap="round" stroke-linejoin="round"/>
</svg>
