<?xml version="1.0" standalone="no"?>
<!DOCTYPE svg PUBLIC "-//W3C//DTD SVG 20010904//EN"
 "http://www.w3.org/TR/2001/REC-SVG-20010904/DTD/svg10.dtd">
<svg version="1.0" xmlns="http://www.w3.org/2000/svg"
 width="164.000000pt" height="71.000000pt" viewBox="0 0 164.000000 71.000000"
 preserveAspectRatio="xMidYMid meet">

<g transform="translate(0.000000,71.000000) scale(0.100000,-0.100000)"
fill="#000000" stroke="none">
<path d="M981 664 c-68 -18 -109 -43 -157 -97 l-39 -42 44 -3 c35 -3 48 1 70
22 81 77 241 77 322 0 22 -21 35 -25 70 -22 l44 3 -39 43 c-49 54 -106 87
-174 101 -65 14 -74 13 -141 -5z"/>
<path d="M361 369 c-46 -98 -47 -104 -28 -107 12 -2 26 3 33 12 15 22 94 22
94 1 0 -10 10 -15 29 -15 l30 0 -48 100 c-27 55 -51 103 -55 107 -3 3 -28 -41
-55 -98z m79 -41 c0 -9 -34 -11 -43 -2 -3 4 -1 16 5 27 10 20 11 20 24 2 8
-10 14 -22 14 -27z"/>
<path d="M540 365 l0 -105 25 0 c24 0 25 3 25 57 l0 57 58 -57 c32 -31 61 -57
65 -57 4 0 7 45 7 100 0 93 -1 100 -20 100 -17 0 -20 -7 -20 -50 0 -27 -4 -50
-8 -50 -4 0 -32 25 -62 55 -30 30 -58 55 -62 55 -4 0 -8 -47 -8 -105z"/>
<path d="M832 459 c-37 -11 -72 -59 -72 -99 0 -35 35 -88 63 -95 13 -4 41 -5
63 -3 32 2 40 7 42 27 3 22 1 23 -36 16 -33 -5 -44 -3 -61 14 -27 27 -27 55 0
82 17 17 29 20 59 15 32 -5 38 -3 43 14 5 19 -3 24 -53 35 -8 2 -30 -1 -48 -6z"/>
<path d="M1034 463 c-12 -2 -34 -17 -49 -33 -63 -66 -17 -170 75 -170 80 0
129 83 91 153 -19 36 -72 59 -117 50z m51 -49 c41 -16 36 -96 -7 -109 -45 -15
-86 32 -68 79 12 32 40 43 75 30z"/>
<path d="M1235 459 c-5 -15 -45 -186 -45 -194 0 -3 11 -5 24 -5 20 0 25 6 31
38 10 64 19 67 45 12 13 -27 27 -50 32 -50 4 0 20 24 35 53 l27 52 11 -50 c9
-43 15 -50 37 -53 l27 -3 -15 53 c-7 29 -19 77 -25 107 -12 61 -16 60 -64 -25
l-32 -57 -38 64 c-45 77 -43 75 -50 58z"/>
<path d="M60 360 l0 -100 25 0 25 0 0 100 0 100 -25 0 -25 0 0 -100z"/>
<path d="M140 455 c0 -14 90 -195 97 -195 4 0 29 45 55 100 l46 100 -27 0
c-25 0 -31 -6 -46 -47 -10 -27 -21 -51 -24 -56 -4 -4 -18 18 -30 48 -19 45
-27 55 -47 55 -13 0 -24 -2 -24 -5z"/>
<path d="M799 182 c33 -61 120 -115 214 -133 103 -18 237 34 295 114 l22 32
-41 3 c-33 3 -47 -2 -68 -21 -82 -78 -254 -76 -327 4 -12 13 -30 19 -61 19
-39 0 -43 -2 -34 -18z"/>
</g>
</svg>
