<?xml version="1.0" encoding="UTF-8"?>
<!DOCTYPE svg PUBLIC "-//W3C//DTD SVG 1.1//EN" "http://www.w3.org/Graphics/SVG/1.1/DTD/svg11.dtd">
<svg xmlns="http://www.w3.org/2000/svg" version="1.1" width="392px" height="160px" style="shape-rendering:geometricPrecision; text-rendering:geometricPrecision; image-rendering:optimizeQuality; fill-rule:evenodd; clip-rule:evenodd" xmlns:xlink="http://www.w3.org/1999/xlink">
<g><path style="opacity:0.791" fill="#fefffe" d="M 291.5,23.5 C 296.889,30.2288 302.389,36.2288 308,41.5C 308.494,43.1341 308.66,44.8008 308.5,46.5C 300.167,46.5 291.833,46.5 283.5,46.5C 283.611,45.8826 283.944,45.3826 284.5,45C 270.169,30.6934 252.502,25.6934 231.5,30C 222.207,33.1568 213.874,38.1568 206.5,45C 206.833,45.3333 207.167,45.6667 207.5,46C 199.507,46.4997 191.507,46.6664 183.5,46.5C 183.215,44.712 183.548,43.0453 184.5,41.5C 192.826,29.3605 203.493,20.0272 216.5,13.5C 228.709,8.44504 241.376,6.27837 254.5,7C 254.167,7.33333 253.833,7.66667 253.5,8C 259.465,8.43589 264.798,9.43589 269.5,11C 269.167,11.3333 268.833,11.6667 268.5,12C 272.224,12.7969 275.89,13.7969 279.5,15C 279.167,15.3333 278.833,15.6667 278.5,16C 282.856,18.5097 287.189,21.0097 291.5,23.5 Z"/></g>
<g><path style="opacity:0.004" fill="#fefffe" d="M 225.5,7.5 C 226.833,8.16667 226.833,8.16667 225.5,7.5 Z"/></g>
<g><path style="opacity:0.004" fill="#fefffe" d="M 219.5,9.5 C 220.833,10.1667 220.833,10.1667 219.5,9.5 Z"/></g>
<g><path style="opacity:0.004" fill="#fefffe" d="M 270.5,10.5 C 270.897,9.47498 271.563,9.30831 272.5,10C 271.906,10.4643 271.239,10.631 270.5,10.5 Z"/></g>
<g><path style="opacity:0.004" fill="#fefffe" d="M 213.5,11.5 C 214.833,12.1667 214.833,12.1667 213.5,11.5 Z"/></g>
<g><path style="opacity:0.004" fill="#fefffe" d="M 209.5,13.5 C 210.833,14.1667 210.833,14.1667 209.5,13.5 Z"/></g>
<g><path style="opacity:0.004" fill="#fefffe" d="M 206.5,15.5 C 207.833,16.1667 207.833,16.1667 206.5,15.5 Z"/></g>
<g><path style="opacity:0.006" fill="#fefffe" d="M 283.5,15.5 C 284.525,15.8966 284.692,16.5632 284,17.5C 283.536,16.9056 283.369,16.2389 283.5,15.5 Z"/></g>
<g><path style="opacity:0.004" fill="#fefffe" d="M 202.5,18.5 C 202.897,17.475 203.563,17.3083 204.5,18C 203.906,18.4643 203.239,18.631 202.5,18.5 Z"/></g>
<g><path style="opacity:0.004" fill="#fefffe" d="M 287.5,17.5 C 288.833,18.1667 288.833,18.1667 287.5,17.5 Z"/></g>
<g><path style="opacity:0.006" fill="#fefffe" d="M 200.5,19.5 C 201.525,19.8966 201.692,20.5632 201,21.5C 200.536,20.9056 200.369,20.2389 200.5,19.5 Z"/></g>
<g><path style="opacity:0.005" fill="#fefffe" d="M 289.5,19.5 C 292.001,19.5109 292.168,20.1776 290,21.5C 289.536,20.9056 289.369,20.2389 289.5,19.5 Z"/></g>
<g><path style="opacity:0.004" fill="#fefffe" d="M 291.5,23.5 C 291.517,21.9719 292.184,21.4719 293.5,22C 292.956,22.7172 292.289,23.2172 291.5,23.5 Z"/></g>
<g><path style="opacity:0.004" fill="#fefffe" d="M 194.5,23.5 C 195.525,23.8966 195.692,24.5632 195,25.5C 194.536,24.9056 194.369,24.2389 194.5,23.5 Z"/></g>
<g><path style="opacity:0.004" fill="#fefffe" d="M 192.5,25.5 C 193.525,25.8966 193.692,26.5632 193,27.5C 192.536,26.9056 192.369,26.2389 192.5,25.5 Z"/></g>
<g><path style="opacity:0.004" fill="#fefffe" d="M 190.5,27.5 C 191.525,27.8966 191.692,28.5632 191,29.5C 190.536,28.9056 190.369,28.2389 190.5,27.5 Z"/></g>
<g><path style="opacity:0.004" fill="#fefffe" d="M 188.5,30.5 C 189.833,31.1667 189.833,31.1667 188.5,30.5 Z"/></g>
<g><path style="opacity:0.006" fill="#fefffe" d="M 302.5,31.5 C 303.525,31.8966 303.692,32.5632 303,33.5C 302.536,32.9056 302.369,32.2389 302.5,31.5 Z"/></g>
<g><path style="opacity:0.004" fill="#fefffe" d="M 263.5,33.5 C 264.833,34.1667 264.833,34.1667 263.5,33.5 Z"/></g>
<g><path style="opacity:0.006" fill="#fefffe" d="M 304.5,33.5 C 305.525,33.8966 305.692,34.5632 305,35.5C 304.536,34.9056 304.369,34.2389 304.5,33.5 Z"/></g>
<g><path style="opacity:0.006" fill="#fefffe" d="M 185.5,35.5 C 185.897,34.475 186.563,34.3083 187.5,35C 186.906,35.4643 186.239,35.631 185.5,35.5 Z"/></g>
<g><path style="opacity:0.004" fill="#fefffe" d="M 221.5,35.5 C 222.525,35.8966 222.692,36.5632 222,37.5C 221.536,36.9056 221.369,36.2389 221.5,35.5 Z"/></g>
<g><path style="opacity:0.006" fill="#fefffe" d="M 183.5,37.5 C 183.897,36.475 184.563,36.3083 185.5,37C 184.906,37.4643 184.239,37.631 183.5,37.5 Z"/></g>
<g><path style="opacity:0.004" fill="#fefffe" d="M 306.5,36.5 C 307.833,37.1667 307.833,37.1667 306.5,36.5 Z"/></g>
<g><path style="opacity:0.004" fill="#fefffe" d="M 271.5,37.5 C 272.525,37.8966 272.692,38.5632 272,39.5C 271.536,38.9056 271.369,38.2389 271.5,37.5 Z"/></g>
<g><path style="opacity:0.004" fill="#fefffe" d="M 182.5,38.5 C 183.833,39.1667 183.833,39.1667 182.5,38.5 Z"/></g>
<g><path style="opacity:0.004" fill="#fefffe" d="M 214.5,39.5 C 216.337,39.6395 216.67,40.3061 215.5,41.5C 214.702,41.0431 214.369,40.3764 214.5,39.5 Z"/></g>
<g><path style="opacity:0.005" fill="#fefffe" d="M 277.5,41.5 C 275.972,41.4827 275.472,40.816 276,39.5C 276.717,40.0442 277.217,40.7109 277.5,41.5 Z"/></g>
<g><path style="opacity:0.005" fill="#fefffe" d="M 277.5,41.5 C 278.289,41.7828 278.956,42.2828 279.5,43C 278.184,43.5281 277.517,43.0281 277.5,41.5 Z"/></g>
<g><path style="opacity:0.004" fill="#fefffe" d="M 212.5,43.5 C 212.897,42.475 213.563,42.3083 214.5,43C 213.906,43.4643 213.239,43.631 212.5,43.5 Z"/></g>
<g><path style="opacity:0.004" fill="#fefffe" d="M 210.5,44.5 C 211.833,45.1667 211.833,45.1667 210.5,44.5 Z"/></g>
<g><path style="opacity:0.004" fill="#fefffe" d="M 279.5,45.5 C 279.897,44.475 280.563,44.3083 281.5,45C 280.906,45.4643 280.239,45.631 279.5,45.5 Z"/></g>
<g><path style="opacity:0.006" fill="#fefffe" d="M 183.5,46.5 C 183.103,47.525 182.437,47.6917 181.5,47C 182.094,46.5357 182.761,46.369 183.5,46.5 Z"/></g>
<g><path style="opacity:0.004" fill="#fefffe" d="M 208.5,46.5 C 209.833,47.1667 209.833,47.1667 208.5,46.5 Z"/></g>
<g><path style="opacity:0.004" fill="#fefffe" d="M 283.5,46.5 C 283.103,47.525 282.437,47.6917 281.5,47C 282.094,46.5357 282.761,46.369 283.5,46.5 Z"/></g>
<g><path style="opacity:0.004" fill="#fefffe" d="M 308.5,46.5 C 309.833,47.1667 309.833,47.1667 308.5,46.5 Z"/></g>
<g><path style="opacity:0.004" fill="#fefffe" d="M 56.5,54.5 C 56.5109,51.9991 57.1776,51.8324 58.5,54C 57.9056,54.4643 57.2389,54.631 56.5,54.5 Z"/></g>
<g><path style="opacity:0.715" fill="#fefffe" d="M 69.5,104.5 C 66.2896,104.249 63.2896,104.249 60.5,104.5C 60.6621,102.473 60.4955,100.473 60,98.5C 59.6667,98.8333 59.3333,99.1667 59,99.5C 53.5499,85.261 47.5499,71.9277 41,59.5C 40.6667,74.1667 40.3333,88.8333 40,103.5C 34.5934,104.473 29.0934,104.807 23.5,104.5C 23.3334,88.4965 23.5001,72.4965 24,56.5C 24.5,56 25,55.5 25.5,55C 27.6667,54.8333 29.8333,54.6667 32,54.5C 34.6254,54.5812 36.9587,55.2478 39,56.5C 39.5,56 40,55.5 40.5,55C 45.8229,54.5006 51.1563,54.334 56.5,54.5C 58.518,61.7084 61.518,68.5418 65.5,75C 64.5494,75.7175 64.3828,76.5509 65,77.5C 65.8378,74.1432 67.3378,71.1432 69.5,68.5C 69.2907,67.914 68.9574,67.414 68.5,67C 70.9436,63.288 73.277,59.4547 75.5,55.5C 80.1315,54.6717 84.7982,54.1717 89.5,54C 90.2236,52.6615 90.8902,52.4949 91.5,53.5C 83.9458,70.2885 76.6125,87.2885 69.5,104.5 Z"/></g>
<g><path style="opacity:0.006" fill="#fefffe" d="M 100.5,54.5 C 98.663,54.3605 98.3296,53.6939 99.5,52.5C 100.298,52.9569 100.631,53.6236 100.5,54.5 Z"/></g>
<g><path style="opacity:0.004" fill="#fefffe" d="M 108.5,54.5 C 108.511,51.9991 109.178,51.8324 110.5,54C 109.906,54.4643 109.239,54.631 108.5,54.5 Z"/></g>
<g><path style="opacity:0.004" fill="#fefffe" d="M 129.5,54.5 C 126.999,54.4891 126.832,53.8224 129,52.5C 129.464,53.0944 129.631,53.7611 129.5,54.5 Z"/></g>
<g><path style="opacity:0.006" fill="#fefffe" d="M 139.5,54.5 C 138.833,54.5 138.167,54.5 137.5,54.5C 138.167,51.8333 138.833,51.8333 139.5,54.5 Z"/></g>
<g><path style="opacity:0.004" fill="#fefffe" d="M 173.5,54.5 C 173.369,53.7611 173.536,53.0944 174,52.5C 174.692,53.4368 174.525,54.1034 173.5,54.5 Z"/></g>
<g><path style="opacity:0.004" fill="#fefffe" d="M 214.5,52.5 C 215.289,52.7828 215.956,53.2828 216.5,54C 215.184,54.5281 214.517,54.0281 214.5,52.5 Z"/></g>
<g><path style="opacity:0.004" fill="#fefffe" d="M 281.5,54.5 C 279.972,54.4827 279.472,53.816 280,52.5C 280.717,53.0442 281.217,53.7109 281.5,54.5 Z"/></g>
<g><path style="opacity:0.005" fill="#fefffe" d="M 289.5,54.5 C 289.511,51.9991 290.178,51.8324 291.5,54C 290.906,54.4643 290.239,54.631 289.5,54.5 Z"/></g>
<g><path style="opacity:0.005" fill="#fefffe" d="M 316.5,54.5 C 313.999,54.4891 313.832,53.8224 316,52.5C 316.464,53.0944 316.631,53.7611 316.5,54.5 Z"/></g>
<g><path style="opacity:0.004" fill="#fefffe" d="M 324.5,54.5 C 324.783,53.7109 325.283,53.0442 326,52.5C 326.528,53.816 326.028,54.4827 324.5,54.5 Z"/></g>
<g><path style="opacity:0.004" fill="#fefffe" d="M 157.5,53.5 C 158.833,54.1667 158.833,54.1667 157.5,53.5 Z"/></g>
<g><path style="opacity:0.004" fill="#fefffe" d="M 234.5,53.5 C 235.833,54.1667 235.833,54.1667 234.5,53.5 Z"/></g>
<g><path style="opacity:0.004" fill="#fefffe" d="M 256.5,53.5 C 257.833,54.1667 257.833,54.1667 256.5,53.5 Z"/></g>
<g><path style="opacity:0.739" fill="#fefffe" d="M 100.5,54.5 C 103.167,54.5 105.833,54.5 108.5,54.5C 109.286,59.0234 110.786,63.3567 113,67.5C 113.75,68.1258 114.584,68.6258 115.5,69C 115.167,69.3333 114.833,69.6667 114.5,70C 118.668,77.1208 121.835,83.9542 124,90.5C 124.383,89.944 124.883,89.6107 125.5,89.5C 125.819,93.1369 126.986,96.4702 129,99.5C 129.5,84.5037 129.667,69.5037 129.5,54.5C 132.167,54.5 134.833,54.5 137.5,54.5C 140.77,59.4397 144.77,63.7731 149.5,67.5C 152.8,70.6352 155.967,73.9685 159,77.5C 158.408,70.2446 158.408,62.9112 159,55.5C 163.737,54.5308 168.57,54.1975 173.5,54.5C 173.343,55.8734 173.51,57.2068 174,58.5C 174.333,57.8333 174.667,57.1667 175,56.5C 175.667,72.1667 175.667,87.8333 175,103.5C 173.957,99.7741 173.457,100.107 173.5,104.5C 171.076,104.808 168.743,104.474 166.5,103.5C 159.819,96.652 152.986,89.9853 146,83.5C 146.746,89.7821 146.579,96.1155 145.5,102.5C 141.035,104.695 136.368,105.028 131.5,103.5C 129.993,99.6452 129.326,99.9786 129.5,104.5C 124.456,104.827 119.456,104.494 114.5,103.5C 112.995,102.158 112.328,100.492 112.5,98.5C 107.238,98.8047 102.072,98.4714 97,97.5C 96.5065,99.1341 96.3398,100.801 96.5,102.5C 94.7973,101.34 94.1307,102.007 94.5,104.5C 89.5,104.5 84.5,104.5 79.5,104.5C 79.1924,102.076 79.5258,99.7427 80.5,97.5C 82.1883,94.696 83.355,91.696 84,88.5C 84.3333,88.8333 84.6667,89.1667 85,89.5C 86.1486,86.2206 86.9819,82.8873 87.5,79.5C 88.1174,79.6107 88.6174,79.944 89,80.5C 89.3333,78.8333 89.6667,77.1667 90,75.5C 90.3333,75.8333 90.6667,76.1667 91,76.5C 94.765,69.4639 97.9316,62.1306 100.5,54.5 Z M 103.5,79.5 C 104.207,81.2307 105.207,82.8974 106.5,84.5C 104.926,85.6309 103.259,85.7975 101.5,85C 102.861,83.4157 103.528,81.5824 103.5,79.5 Z"/></g>
<g><path style="opacity:0.006" fill="#fefffe" d="M 139.5,54.5 C 141.337,54.6395 141.67,55.3061 140.5,56.5C 139.702,56.0431 139.369,55.3764 139.5,54.5 Z"/></g>
<g><path style="opacity:0.004" fill="#fefffe" d="M 188.5,54.5 C 189.525,54.8966 189.692,55.5632 189,56.5C 188.536,55.9056 188.369,55.2389 188.5,54.5 Z"/></g>
<g><path style="opacity:0.743" fill="#fefffe" d="M 220.5,58.5 C 221.852,63.2303 220.518,67.2303 216.5,70.5C 211.337,69.6346 205.337,69.6346 198.5,70.5C 197.624,71.2508 196.624,71.7508 195.5,72C 195.833,72.3333 196.167,72.6667 196.5,73C 195.167,73.6667 194.167,74.6667 193.5,76C 194.525,79.2708 194.525,82.2708 193.5,85C 195,85.8333 196.167,87 197,88.5C 197.333,88.1667 197.667,87.8333 198,87.5C 199.87,88.7435 202.036,89.4101 204.5,89.5C 213.018,85.2229 218.685,87.5562 221.5,96.5C 221.38,99.0635 220.047,100.564 217.5,101C 218.056,101.383 218.389,101.883 218.5,102.5C 210.256,104.49 201.922,104.823 193.5,103.5C 181.484,96.9972 176.318,86.9972 178,73.5C 184.48,57.3422 196.313,51.3422 213.5,55.5C 215.758,56.799 218.092,57.799 220.5,58.5 Z"/></g>
<g><path style="opacity:0.782" fill="#fefffe" d="M 237.5,54.5 C 256.974,52.0322 268.308,60.3655 271.5,79.5C 268.083,99.3348 256.416,107.335 236.5,103.5C 219.497,94.3581 215.663,81.3581 225,64.5C 227.912,61.588 230.412,59.088 232.5,57C 234.744,56.9504 236.411,56.1171 237.5,54.5 Z M 250.5,70.5 C 258.348,76.5884 258.348,82.7551 250.5,89C 245.991,89.7289 241.658,89.2289 237.5,87.5C 236.373,85.0023 235.706,82.3356 235.5,79.5C 235.848,75.3057 237.848,72.139 241.5,70C 244.696,69.1955 247.696,69.3622 250.5,70.5 Z"/></g>
<g><path style="opacity:0.734" fill="#fefffe" d="M 281.5,54.5 C 284.167,54.5 286.833,54.5 289.5,54.5C 289.157,56.4832 289.824,57.8166 291.5,58.5C 294.615,66.4702 298.448,74.1369 303,81.5C 304.661,77.5649 306.995,73.5649 310,69.5C 312.719,64.7293 314.886,59.7293 316.5,54.5C 319.167,54.5 321.833,54.5 324.5,54.5C 327.928,69.8507 331.095,84.5174 334,98.5C 334.333,98.1667 334.667,97.8333 335,97.5C 335.497,99.8098 335.663,102.143 335.5,104.5C 329.933,105.046 324.6,104.379 319.5,102.5C 317.817,96.2413 316.483,89.9079 315.5,83.5C 312.198,90.4307 309.198,97.4307 306.5,104.5C 304.208,104.756 302.041,104.423 300,103.5C 296.653,96.8059 293.32,90.1393 290,83.5C 289.508,89.9553 288.341,96.2886 286.5,102.5C 281.4,104.379 276.067,105.046 270.5,104.5C 270.337,102.143 270.503,99.8098 271,97.5C 271.333,97.8333 271.667,98.1667 272,98.5C 272.333,95.1667 272.667,91.8333 273,88.5C 273.333,88.8333 273.667,89.1667 274,89.5C 274.333,86.1667 274.667,82.8333 275,79.5C 275.333,79.8333 275.667,80.1667 276,80.5C 276.333,77.5 276.667,74.5 277,71.5C 277.333,71.8333 277.667,72.1667 278,72.5C 277.952,68.4794 278.952,64.8127 281,61.5C 281.497,59.1902 281.663,56.8568 281.5,54.5 Z"/></g>
<g><path style="opacity:0.004" fill="#fefffe" d="M 96.5,55.5 C 97.8333,56.1667 97.8333,56.1667 96.5,55.5 Z"/></g>
<g><path style="opacity:0.004" fill="#fefffe" d="M 218.5,56.5 C 218.897,55.475 219.563,55.3083 220.5,56C 219.906,56.4643 219.239,56.631 218.5,56.5 Z"/></g>
<g><path style="opacity:0.004" fill="#fefffe" d="M 229.5,56.5 C 229.897,55.475 230.563,55.3083 231.5,56C 230.906,56.4643 230.239,56.631 229.5,56.5 Z"/></g>
<g><path style="opacity:0.004" fill="#fefffe" d="M 260.5,55.5 C 261.833,56.1667 261.833,56.1667 260.5,55.5 Z"/></g>
<g><path style="opacity:0.007" fill="#fefffe" d="M 142.5,56.5 C 143.773,57.0768 143.773,57.7435 142.5,58.5C 141.537,58.0302 141.537,57.3635 142.5,56.5 Z"/></g>
<g><path style="opacity:0.005" fill="#fefffe" d="M 220.5,58.5 C 220.783,57.7109 221.283,57.0442 222,56.5C 222.528,57.816 222.028,58.4827 220.5,58.5 Z"/></g>
<g><path style="opacity:0.005" fill="#fefffe" d="M 227.5,56.5 C 228.289,56.7828 228.956,57.2828 229.5,58C 228.184,58.5281 227.517,58.0281 227.5,56.5 Z"/></g>
<g><path style="opacity:0.005" fill="#fefffe" d="M 264.5,58.5 C 262.972,58.4827 262.472,57.816 263,56.5C 263.717,57.0442 264.217,57.7109 264.5,58.5 Z"/></g>
<g><path style="opacity:0.004" fill="#fefffe" d="M 69.5,57.5 C 70.8333,58.1667 70.8333,58.1667 69.5,57.5 Z"/></g>
<g><path style="opacity:0.004" fill="#fefffe" d="M 110.5,58.5 C 110.897,57.475 111.563,57.3083 112.5,58C 111.906,58.4643 111.239,58.631 110.5,58.5 Z"/></g>
<g><path style="opacity:0.004" fill="#fefffe" d="M 184.5,57.5 C 185.833,58.1667 185.833,58.1667 184.5,57.5 Z"/></g>
<g><path style="opacity:0.004" fill="#fefffe" d="M 291.5,57.5 C 292.833,58.1667 292.833,58.1667 291.5,57.5 Z"/></g>
<g><path style="opacity:0.007" fill="#fefffe" d="M 144.5,58.5 C 145.773,59.0768 145.773,59.7435 144.5,60.5C 143.537,60.0302 143.537,59.3635 144.5,58.5 Z"/></g>
<g><path style="opacity:0.007" fill="#fefffe" d="M 225.5,58.5 C 226.289,58.7828 226.956,59.2828 227.5,60C 226.184,60.5281 225.517,60.0281 225.5,58.5 Z"/></g>
<g><path style="opacity:0.007" fill="#fefffe" d="M 264.5,58.5 C 265.289,58.7828 265.956,59.2828 266.5,60C 265.184,60.5281 264.517,60.0281 264.5,58.5 Z"/></g>
<g><path style="opacity:0.004" fill="#fefffe" d="M 181.5,60.5 C 181.897,59.475 182.563,59.3083 183.5,60C 182.906,60.4643 182.239,60.631 181.5,60.5 Z"/></g>
<g><path style="opacity:0.004" fill="#fefffe" d="M 277.5,59.5 C 278.833,60.1667 278.833,60.1667 277.5,59.5 Z"/></g>
<g><path style="opacity:0.004" fill="#fefffe" d="M 293.5,60.5 C 293.897,59.475 294.563,59.3083 295.5,60C 294.906,60.4643 294.239,60.631 293.5,60.5 Z"/></g>
<g><path style="opacity:0.004" fill="#fefffe" d="M 310.5,60.5 C 310.897,59.475 311.563,59.3083 312.5,60C 311.906,60.4643 311.239,60.631 310.5,60.5 Z"/></g>
<g><path style="opacity:0.008" fill="#fefffe" d="M 146.5,60.5 C 147.525,60.8966 147.692,61.5632 147,62.5C 146.536,61.9056 146.369,61.2389 146.5,60.5 Z"/></g>
<g><path style="opacity:0.007" fill="#fefffe" d="M 223.5,60.5 C 224.289,60.7828 224.956,61.2828 225.5,62C 224.184,62.5281 223.517,62.0281 223.5,60.5 Z"/></g>
<g><path style="opacity:0.004" fill="#fefffe" d="M 60.5,62.5 C 60.8966,61.475 61.5632,61.3083 62.5,62C 61.9056,62.4643 61.2389,62.631 60.5,62.5 Z"/></g>
<g><path style="opacity:0.004" fill="#fefffe" d="M 112.5,62.5 C 112.897,61.475 113.563,61.3083 114.5,62C 113.906,62.4643 113.239,62.631 112.5,62.5 Z"/></g>
<g><path style="opacity:0.004" fill="#fefffe" d="M 180.5,61.5 C 181.833,62.1667 181.833,62.1667 180.5,61.5 Z"/></g>
<g><path style="opacity:0.006" fill="#fefffe" d="M 266.5,62.5 C 266.897,61.475 267.563,61.3083 268.5,62C 267.906,62.4643 267.239,62.631 266.5,62.5 Z"/></g>
<g><path style="opacity:0.004" fill="#fefffe" d="M 67.5,63.5 C 68.8333,64.1667 68.8333,64.1667 67.5,63.5 Z"/></g>
<g><path style="opacity:0.008" fill="#fefffe" d="M 148.5,63.5 C 149.833,64.1667 149.833,64.1667 148.5,63.5 Z"/></g>
<g><path style="opacity:0.004" fill="#fefffe" d="M 268.5,63.5 C 269.833,64.1667 269.833,64.1667 268.5,63.5 Z"/></g>
<g><path style="opacity:0.004" fill="#fefffe" d="M 295.5,64.5 C 295.897,63.475 296.563,63.3083 297.5,64C 296.906,64.4643 296.239,64.631 295.5,64.5 Z"/></g>
<g><path style="opacity:0.004" fill="#fefffe" d="M 308.5,64.5 C 308.897,63.475 309.563,63.3083 310.5,64C 309.906,64.4643 309.239,64.631 308.5,64.5 Z"/></g>
<g><path style="opacity:0.004" fill="#fefffe" d="M 63.5,65.5 C 64.8333,66.1667 64.8333,66.1667 63.5,65.5 Z"/></g>
<g><path style="opacity:0.004" fill="#fefffe" d="M 114.5,66.5 C 114.897,65.475 115.563,65.3083 116.5,66C 115.906,66.4643 115.239,66.631 114.5,66.5 Z"/></g>
<g><path style="opacity:0.008" fill="#fefffe" d="M 150.5,65.5 C 151.833,66.1667 151.833,66.1667 150.5,65.5 Z"/></g>
<g><path style="opacity:0.004" fill="#fefffe" d="M 177.5,66.5 C 177.897,65.475 178.563,65.3083 179.5,66C 178.906,66.4643 178.239,66.631 177.5,66.5 Z"/></g>
<g><path style="opacity:0.004" fill="#fefffe" d="M 150.5,66.5 C 149.833,67.1667 149.833,67.1667 150.5,66.5 Z"/></g>
<g><path style="opacity:0.004" fill="#fefffe" d="M 65.5,67.5 C 66.8333,68.1667 66.8333,68.1667 65.5,67.5 Z"/></g>
<g><path style="opacity:0.008" fill="#fefffe" d="M 152.5,67.5 C 153.833,68.1667 153.833,68.1667 152.5,67.5 Z"/></g>
<g><path style="opacity:0.004" fill="#fefffe" d="M 297.5,68.5 C 297.897,67.475 298.563,67.3083 299.5,68C 298.906,68.4643 298.239,68.631 297.5,68.5 Z"/></g>
<g><path style="opacity:0.004" fill="#fefffe" d="M 306.5,68.5 C 306.897,67.475 307.563,67.3083 308.5,68C 307.906,68.4643 307.239,68.631 306.5,68.5 Z"/></g>
<g><path style="opacity:0.004" fill="#fefffe" d="M 42.5,70.5 C 42.8966,69.475 43.5632,69.3083 44.5,70C 43.9056,70.4643 43.2389,70.631 42.5,70.5 Z"/></g>
<g><path style="opacity:0.004" fill="#fefffe" d="M 90.5,69.5 C 91.8333,70.1667 91.8333,70.1667 90.5,69.5 Z"/></g>
<g><path style="opacity:0.004" fill="#fefffe" d="M 117.5,69.5 C 118.833,70.1667 118.833,70.1667 117.5,69.5 Z"/></g>
<g><path style="opacity:0.008" fill="#fefffe" d="M 154.5,69.5 C 155.833,70.1667 155.833,70.1667 154.5,69.5 Z"/></g>
<g><path style="opacity:0.004" fill="#fefffe" d="M 85.5,72.5 C 85.8966,71.475 86.5632,71.3083 87.5,72C 86.9056,72.4643 86.2389,72.631 85.5,72.5 Z"/></g>
<g><path style="opacity:0.004" fill="#fefffe" d="M 200.5,71.5 C 201.833,72.1667 201.833,72.1667 200.5,71.5 Z"/></g>
<g><path style="opacity:0.004" fill="#fefffe" d="M 207.5,71.5 C 208.833,72.1667 208.833,72.1667 207.5,71.5 Z"/></g>
<g><path style="opacity:0.004" fill="#fefffe" d="M 300.5,71.5 C 301.833,72.1667 301.833,72.1667 300.5,71.5 Z"/></g>
<g><path style="opacity:0.004" fill="#fefffe" d="M 304.5,71.5 C 305.833,72.1667 305.833,72.1667 304.5,71.5 Z"/></g>
<g><path style="opacity:0.004" fill="#fefffe" d="M 213.5,73.5 C 213.897,72.475 214.563,72.3083 215.5,73C 214.906,73.4643 214.239,73.631 213.5,73.5 Z"/></g>
<g><path style="opacity:0.004" fill="#fefffe" d="M 44.5,74.5 C 44.8966,73.475 45.5632,73.3083 46.5,74C 45.9056,74.4643 45.2389,74.631 44.5,74.5 Z"/></g>
<g><path style="opacity:0.004" fill="#fefffe" d="M 88.5,73.5 C 89.8333,74.1667 89.8333,74.1667 88.5,73.5 Z"/></g>
<g><path style="opacity:0.004" fill="#fefffe" d="M 119.5,73.5 C 120.833,74.1667 120.833,74.1667 119.5,73.5 Z"/></g>
<g><path style="opacity:0.004" fill="#fefffe" d="M 211.5,73.5 C 212.833,74.1667 212.833,74.1667 211.5,73.5 Z"/></g>
<g><path style="opacity:0.004" fill="#fefffe" d="M 216.5,74.5 C 216.897,73.475 217.563,73.3083 218.5,74C 217.906,74.4643 217.239,74.631 216.5,74.5 Z"/></g>
<g><path style="opacity:0.004" fill="#fefffe" d="M 302.5,73.5 C 303.525,73.8966 303.692,74.5632 303,75.5C 302.536,74.9056 302.369,74.2389 302.5,73.5 Z"/></g>
<g><path style="opacity:0.004" fill="#fefffe" d="M 83.5,76.5 C 83.8966,75.475 84.5632,75.3083 85.5,76C 84.9056,76.4643 84.2389,76.631 83.5,76.5 Z"/></g>
<g><path style="opacity:0.004" fill="#fefffe" d="M 196.5,75.5 C 197.833,76.1667 197.833,76.1667 196.5,75.5 Z"/></g>
<g><path style="opacity:0.004" fill="#fefffe" d="M 47.5,77.5 C 48.8333,78.1667 48.8333,78.1667 47.5,77.5 Z"/></g>
<g><path style="opacity:0.004" fill="#fefffe" d="M 87.5,79.5 C 86.475,79.1034 86.3083,78.4368 87,77.5C 87.4643,78.0944 87.631,78.7611 87.5,79.5 Z"/></g>
<g><path style="opacity:0.005" fill="#fefffe" d="M 218.5,77.5 C 219.598,78.6009 219.765,79.9343 219,81.5C 218.51,80.2068 218.343,78.8734 218.5,77.5 Z"/></g>
<g><path style="opacity:0.006" fill="#fefffe" d="M 81.5,80.5 C 81.8966,79.475 82.5632,79.3083 83.5,80C 82.9056,80.4643 82.2389,80.631 81.5,80.5 Z"/></g>
<g><path style="opacity:0.006" fill="#fefffe" d="M 84.5,81.5 C 85.525,81.8966 85.6917,82.5632 85,83.5C 84.5357,82.9056 84.369,82.2389 84.5,81.5 Z"/></g>
<g><path style="opacity:0.004" fill="#fefffe" d="M 49.5,83.5 C 50.8333,84.1667 50.8333,84.1667 49.5,83.5 Z"/></g>
<g><path style="opacity:0.004" fill="#fefffe" d="M 79.5,83.5 C 80.8333,84.1667 80.8333,84.1667 79.5,83.5 Z"/></g>
<g><path style="opacity:0.005" fill="#fefffe" d="M 250.5,83.5 C 251.289,83.7828 251.956,84.2828 252.5,85C 251.184,85.5281 250.517,85.0281 250.5,83.5 Z"/></g>
<g><path style="opacity:0.008" fill="#fefffe" d="M 82.5,86.5 C 83.8333,87.1667 83.8333,87.1667 82.5,86.5 Z"/></g>
<g><path style="opacity:0.004" fill="#fefffe" d="M 200.5,86.5 C 201.833,87.1667 201.833,87.1667 200.5,86.5 Z"/></g>
<g><path style="opacity:0.004" fill="#fefffe" d="M 206.5,87.5 C 206.897,86.475 207.563,86.3083 208.5,87C 207.906,87.4643 207.239,87.631 206.5,87.5 Z"/></g>
<g><path style="opacity:0.004" fill="#fefffe" d="M 333.5,86.5 C 334.833,87.1667 334.833,87.1667 333.5,86.5 Z"/></g>
<g><path style="opacity:0.004" fill="#fefffe" d="M 51.5,87.5 C 52.8333,88.1667 52.8333,88.1667 51.5,87.5 Z"/></g>
<g><path style="opacity:0.004" fill="#fefffe" d="M 77.5,88.5 C 78.8333,89.1667 78.8333,89.1667 77.5,88.5 Z"/></g>
<g><path style="opacity:0.004" fill="#fefffe" d="M 125.5,88.5 C 126.833,89.1667 126.833,89.1667 125.5,88.5 Z"/></g>
<g><path style="opacity:0.004" fill="#fefffe" d="M 148.5,89.5 C 151.001,89.5109 151.168,90.1776 149,91.5C 148.536,90.9056 148.369,90.2389 148.5,89.5 Z"/></g>
<g><path style="opacity:0.008" fill="#fefffe" d="M 80.5,90.5 C 81.8333,91.1667 81.8333,91.1667 80.5,90.5 Z"/></g>
<g><path style="opacity:0.004" fill="#fefffe" d="M 53.5,91.5 C 54.525,91.8966 54.6917,92.5632 54,93.5C 53.5357,92.9056 53.369,92.2389 53.5,91.5 Z"/></g>
<g><path style="opacity:0.004" fill="#fefffe" d="M 75.5,92.5 C 76.8333,93.1667 76.8333,93.1667 75.5,92.5 Z"/></g>
<g><path style="opacity:0.004" fill="#fefffe" d="M 150.5,93.5 C 150.897,92.475 151.563,92.3083 152.5,93C 151.906,93.4643 151.239,93.631 150.5,93.5 Z"/></g>
<g><path style="opacity:0.004" fill="#fefffe" d="M 177.5,93.5 C 177.897,92.475 178.563,92.3083 179.5,93C 178.906,93.4643 178.239,93.631 177.5,93.5 Z"/></g>
<g><path style="opacity:0.004" fill="#fefffe" d="M 292.5,93.5 C 293.525,93.8966 293.692,94.5632 293,95.5C 292.536,94.9056 292.369,94.2389 292.5,93.5 Z"/></g>
<g><path style="opacity:0.004" fill="#fefffe" d="M 78.5,94.5 C 79.8333,95.1667 79.8333,95.1667 78.5,94.5 Z"/></g>
<g><path style="opacity:0.004" fill="#fefffe" d="M 152.5,95.5 C 152.897,94.475 153.563,94.3083 154.5,95C 153.906,95.4643 153.239,95.631 152.5,95.5 Z"/></g>
<g><path style="opacity:0.004" fill="#fefffe" d="M 268.5,95.5 C 268.897,94.475 269.563,94.3083 270.5,95C 269.906,95.4643 269.239,95.631 268.5,95.5 Z"/></g>
<g><path style="opacity:0.004" fill="#fefffe" d="M 312.5,94.5 C 313.833,95.1667 313.833,95.1667 312.5,94.5 Z"/></g>
<g><path style="opacity:0.004" fill="#fefffe" d="M 335.5,94.5 C 336.833,95.1667 336.833,95.1667 335.5,94.5 Z"/></g>
<g><path style="opacity:0.004" fill="#fefffe" d="M 55.5,96.5 C 56.8333,97.1667 56.8333,97.1667 55.5,96.5 Z"/></g>
<g><path style="opacity:0.004" fill="#fefffe" d="M 155.5,96.5 C 156.833,97.1667 156.833,97.1667 155.5,96.5 Z"/></g>
<g><path style="opacity:0.004" fill="#fefffe" d="M 180.5,96.5 C 181.833,97.1667 181.833,97.1667 180.5,96.5 Z"/></g>
<g><path style="opacity:0.006" fill="#fefffe" d="M 223.5,97.5 C 223.897,96.475 224.563,96.3083 225.5,97C 224.906,97.4643 224.239,97.631 223.5,97.5 Z"/></g>
<g><path style="opacity:0.006" fill="#fefffe" d="M 266.5,97.5 C 266.897,96.475 267.563,96.3083 268.5,97C 267.906,97.4643 267.239,97.631 266.5,97.5 Z"/></g>
<g><path style="opacity:0.004" fill="#fefffe" d="M 289.5,96.5 C 290.833,97.1667 290.833,97.1667 289.5,96.5 Z"/></g>
<g><path style="opacity:0.004" fill="#fefffe" d="M 73.5,98.5 C 74.8333,99.1667 74.8333,99.1667 73.5,98.5 Z"/></g>
<g><path style="opacity:0.004" fill="#fefffe" d="M 157.5,98.5 C 158.833,99.1667 158.833,99.1667 157.5,98.5 Z"/></g>
<g><path style="opacity:0.006" fill="#fefffe" d="M 181.5,99.5 C 181.897,98.475 182.563,98.3083 183.5,99C 182.906,99.4643 182.239,99.631 181.5,99.5 Z"/></g>
<g><path style="opacity:0.008" fill="#fefffe" d="M 225.5,99.5 C 225.897,98.475 226.563,98.3083 227.5,99C 226.906,99.4643 226.239,99.631 225.5,99.5 Z"/></g>
<g><path style="opacity:0.008" fill="#fefffe" d="M 264.5,99.5 C 264.897,98.475 265.563,98.3083 266.5,99C 265.906,99.4643 265.239,99.631 264.5,99.5 Z"/></g>
<g><path style="opacity:0.004" fill="#fefffe" d="M 294.5,98.5 C 295.833,99.1667 295.833,99.1667 294.5,98.5 Z"/></g>
<g><path style="opacity:0.004" fill="#fefffe" d="M 310.5,98.5 C 311.833,99.1667 311.833,99.1667 310.5,98.5 Z"/></g>
<g><path style="opacity:0.008" fill="#fefffe" d="M 57.5,100.5 C 58.8333,101.167 58.8333,101.167 57.5,100.5 Z"/></g>
<g><path style="opacity:0.004" fill="#fefffe" d="M 109.5,100.5 C 110.833,101.167 110.833,101.167 109.5,100.5 Z"/></g>
<g><path style="opacity:0.004" fill="#fefffe" d="M 159.5,100.5 C 160.833,101.167 160.833,101.167 159.5,100.5 Z"/></g>
<g><path style="opacity:0.006" fill="#fefffe" d="M 183.5,101.5 C 183.897,100.475 184.563,100.308 185.5,101C 184.906,101.464 184.239,101.631 183.5,101.5 Z"/></g>
<g><path style="opacity:0.006" fill="#fefffe" d="M 220.5,101.5 C 220.897,100.475 221.563,100.308 222.5,101C 221.906,101.464 221.239,101.631 220.5,101.5 Z"/></g>
<g><path style="opacity:0.008" fill="#fefffe" d="M 227.5,101.5 C 227.897,100.475 228.563,100.308 229.5,101C 228.906,101.464 228.239,101.631 227.5,101.5 Z"/></g>
<g><path style="opacity:0.006" fill="#fefffe" d="M 262.5,101.5 C 262.897,100.475 263.563,100.308 264.5,101C 263.906,101.464 263.239,101.631 262.5,101.5 Z"/></g>
<g><path style="opacity:0.004" fill="#fefffe" d="M 71.5,102.5 C 72.8333,103.167 72.8333,103.167 71.5,102.5 Z"/></g>
<g><path style="opacity:0.004" fill="#fefffe" d="M 96.5,102.5 C 97.8333,103.167 97.8333,103.167 96.5,102.5 Z"/></g>
<g><path style="opacity:0.004" fill="#fefffe" d="M 161.5,102.5 C 162.833,103.167 162.833,103.167 161.5,102.5 Z"/></g>
<g><path style="opacity:0.004" fill="#fefffe" d="M 186.5,102.5 C 187.833,103.167 187.833,103.167 186.5,102.5 Z"/></g>
<g><path style="opacity:0.004" fill="#fefffe" d="M 218.5,102.5 C 219.239,102.369 219.906,102.536 220.5,103C 219.563,103.692 218.897,103.525 218.5,102.5 Z"/></g>
<g><path style="opacity:0.004" fill="#fefffe" d="M 229.5,103.5 C 229.897,102.475 230.563,102.308 231.5,103C 230.906,103.464 230.239,103.631 229.5,103.5 Z"/></g>
<g><path style="opacity:0.004" fill="#fefffe" d="M 260.5,102.5 C 261.833,103.167 261.833,103.167 260.5,102.5 Z"/></g>
<g><path style="opacity:0.004" fill="#fefffe" d="M 296.5,102.5 C 297.833,103.167 297.833,103.167 296.5,102.5 Z"/></g>
<g><path style="opacity:0.004" fill="#fefffe" d="M 308.5,102.5 C 309.833,103.167 309.833,103.167 308.5,102.5 Z"/></g>
<g><path style="opacity:0.004" fill="#fefffe" d="M 23.5,104.5 C 22.8333,105.167 22.8333,105.167 23.5,104.5 Z"/></g>
<g><path style="opacity:0.004" fill="#fefffe" d="M 40.5,104.5 C 41.8333,105.167 41.8333,105.167 40.5,104.5 Z"/></g>
<g><path style="opacity:0.008" fill="#fefffe" d="M 60.5,104.5 C 59.8333,105.167 59.8333,105.167 60.5,104.5 Z"/></g>
<g><path style="opacity:0.008" fill="#fefffe" d="M 69.5,104.5 C 70.525,104.897 70.6917,105.563 70,106.5C 69.5357,105.906 69.369,105.239 69.5,104.5 Z"/></g>
<g><path style="opacity:0.008" fill="#fefffe" d="M 79.5,104.5 C 79.1034,105.525 78.4368,105.692 77.5,105C 78.0944,104.536 78.7611,104.369 79.5,104.5 Z"/></g>
<g><path style="opacity:0.008" fill="#fefffe" d="M 94.5,104.5 C 95.8333,105.167 95.8333,105.167 94.5,104.5 Z"/></g>
<g><path style="opacity:0.004" fill="#fefffe" d="M 111.5,104.5 C 112.833,105.167 112.833,105.167 111.5,104.5 Z"/></g>
<g><path style="opacity:0.008" fill="#fefffe" d="M 129.5,104.5 C 130.833,105.167 130.833,105.167 129.5,104.5 Z"/></g>
<g><path style="opacity:0.004" fill="#fefffe" d="M 146.5,104.5 C 147.833,105.167 147.833,105.167 146.5,104.5 Z"/></g>
<g><path style="opacity:0.004" fill="#fefffe" d="M 163.5,104.5 C 164.833,105.167 164.833,105.167 163.5,104.5 Z"/></g>
<g><path style="opacity:0.004" fill="#fefffe" d="M 175.5,104.5 C 176.833,105.167 176.833,105.167 175.5,104.5 Z"/></g>
<g><path style="opacity:0.004" fill="#fefffe" d="M 190.5,104.5 C 191.833,105.167 191.833,105.167 190.5,104.5 Z"/></g>
<g><path style="opacity:0.004" fill="#fefffe" d="M 214.5,105.5 C 214.897,104.475 215.563,104.308 216.5,105C 215.906,105.464 215.239,105.631 214.5,105.5 Z"/></g>
<g><path style="opacity:0.004" fill="#fefffe" d="M 233.5,105.5 C 233.897,104.475 234.563,104.308 235.5,105C 234.906,105.464 234.239,105.631 233.5,105.5 Z"/></g>
<g><path style="opacity:0.004" fill="#fefffe" d="M 256.5,104.5 C 257.833,105.167 257.833,105.167 256.5,104.5 Z"/></g>
<g><path style="opacity:0.004" fill="#fefffe" d="M 270.5,104.5 C 269.833,105.167 269.833,105.167 270.5,104.5 Z"/></g>
<g><path style="opacity:0.004" fill="#fefffe" d="M 287.5,104.5 C 288.833,105.167 288.833,105.167 287.5,104.5 Z"/></g>
<g><path style="opacity:0.012" fill="#fefffe" d="M 298.5,104.5 C 299.833,105.167 299.833,105.167 298.5,104.5 Z"/></g>
<g><path style="opacity:0.012" fill="#fefffe" d="M 306.5,104.5 C 307.833,105.167 307.833,105.167 306.5,104.5 Z"/></g>
<g><path style="opacity:0.004" fill="#fefffe" d="M 317.5,104.5 C 318.833,105.167 318.833,105.167 317.5,104.5 Z"/></g>
<g><path style="opacity:0.008" fill="#fefffe" d="M 335.5,104.5 C 336.833,105.167 336.833,105.167 335.5,104.5 Z"/></g>
<g><path style="opacity:0.004" fill="#fefffe" d="M 61.5,106.5 C 62.8333,107.167 62.8333,107.167 61.5,106.5 Z"/></g>
<g><path style="opacity:0.007" fill="#fefffe" d="M 183.5,112.5 C 180.999,112.489 180.832,111.822 183,110.5C 183.464,111.094 183.631,111.761 183.5,112.5 Z"/></g>
<g><path style="opacity:0.006" fill="#fefffe" d="M 308.5,112.5 C 308.369,111.761 308.536,111.094 309,110.5C 309.692,111.437 309.525,112.103 308.5,112.5 Z"/></g>
<g><path style="opacity:0.004" fill="#fefffe" d="M 208.5,111.5 C 209.833,112.167 209.833,112.167 208.5,111.5 Z"/></g>
<g><path style="opacity:0.004" fill="#fefffe" d="M 281.5,112.5 C 281.897,111.475 282.563,111.308 283.5,112C 282.906,112.464 282.239,112.631 281.5,112.5 Z"/></g>
<g><path style="opacity:0.796" fill="#fefffe" d="M 183.5,112.5 C 191.196,112.169 198.862,112.503 206.5,113.5C 217.003,125.025 230.003,131.025 245.5,131.5C 252.858,130.545 260.191,129.045 267.5,127C 273.658,123.738 279.325,119.238 284.5,113.5C 292.472,112.502 300.472,112.169 308.5,112.5C 307.707,117.157 305.374,120.99 301.5,124C 301.833,124.333 302.167,124.667 302.5,125C 297.921,129.083 293.587,133.249 289.5,137.5C 283.186,141.629 276.853,144.962 270.5,147.5C 268.234,148.314 265.9,148.814 263.5,149C 263.833,149.333 264.167,149.667 264.5,150C 262.167,150.333 259.833,150.667 257.5,151C 257.833,151.333 258.167,151.667 258.5,152C 250.147,152.832 241.813,152.665 233.5,151.5C 228.305,149.433 222.305,147.6 215.5,146C 215.833,145.667 216.167,145.333 216.5,145C 204.463,140.132 194.629,131.966 187,120.5C 186.184,119.177 185.017,118.511 183.5,118.5C 183.5,116.5 183.5,114.5 183.5,112.5 Z"/></g>
<g><path style="opacity:0.004" fill="#fefffe" d="M 279.5,113.5 C 280.833,114.167 280.833,114.167 279.5,113.5 Z"/></g>
<g><path style="opacity:0.004" fill="#fefffe" d="M 212.5,115.5 C 213.833,116.167 213.833,116.167 212.5,115.5 Z"/></g>
<g><path style="opacity:0.004" fill="#fefffe" d="M 277.5,115.5 C 278.833,116.167 278.833,116.167 277.5,115.5 Z"/></g>
<g><path style="opacity:0.004" fill="#fefffe" d="M 214.5,118.5 C 214.897,117.475 215.563,117.308 216.5,118C 215.906,118.464 215.239,118.631 214.5,118.5 Z"/></g>
<g><path style="opacity:0.008" fill="#fefffe" d="M 275.5,117.5 C 276.833,118.167 276.833,118.167 275.5,117.5 Z"/></g>
<g><path style="opacity:0.004" fill="#fefffe" d="M 183.5,118.5 C 183.483,120.028 182.816,120.528 181.5,120C 182.044,119.283 182.711,118.783 183.5,118.5 Z"/></g>
<g><path style="opacity:0.004" fill="#fefffe" d="M 216.5,120.5 C 216.897,119.475 217.563,119.308 218.5,120C 217.906,120.464 217.239,120.631 216.5,120.5 Z"/></g>
<g><path style="opacity:0.008" fill="#fefffe" d="M 273.5,119.5 C 274.833,120.167 274.833,120.167 273.5,119.5 Z"/></g>
<g><path style="opacity:0.004" fill="#fefffe" d="M 308.5,119.5 C 309.833,120.167 309.833,120.167 308.5,119.5 Z"/></g>
<g><path style="opacity:0.004" fill="#fefffe" d="M 306.5,120.5 C 307.525,120.897 307.692,121.563 307,122.5C 306.536,121.906 306.369,121.239 306.5,120.5 Z"/></g>
<g><path style="opacity:0.006" fill="#fefffe" d="M 183.5,122.5 C 183.897,121.475 184.563,121.308 185.5,122C 184.906,122.464 184.239,122.631 183.5,122.5 Z"/></g>
<g><path style="opacity:0.004" fill="#fefffe" d="M 221.5,121.5 C 222.833,122.167 222.833,122.167 221.5,121.5 Z"/></g>
<g><path style="opacity:0.008" fill="#fefffe" d="M 269.5,121.5 C 270.833,122.167 270.833,122.167 269.5,121.5 Z"/></g>
<g><path style="opacity:0.004" fill="#fefffe" d="M 225.5,123.5 C 226.833,124.167 226.833,124.167 225.5,123.5 Z"/></g>
<g><path style="opacity:0.004" fill="#fefffe" d="M 265.5,123.5 C 266.833,124.167 266.833,124.167 265.5,123.5 Z"/></g>
<g><path style="opacity:0.008" fill="#fefffe" d="M 304.5,123.5 C 305.833,124.167 305.833,124.167 304.5,123.5 Z"/></g>
<g><path style="opacity:0.004" fill="#fefffe" d="M 186.5,125.5 C 187.833,126.167 187.833,126.167 186.5,125.5 Z"/></g>
<g><path style="opacity:0.008" fill="#fefffe" d="M 188.5,127.5 C 189.833,128.167 189.833,128.167 188.5,127.5 Z"/></g>
<g><path style="opacity:0.004" fill="#fefffe" d="M 302.5,127.5 C 303.833,128.167 303.833,128.167 302.5,127.5 Z"/></g>
<g><path style="opacity:0.012" fill="#fefffe" d="M 190.5,129.5 C 191.833,130.167 191.833,130.167 190.5,129.5 Z"/></g>
<g><path style="opacity:0.004" fill="#fefffe" d="M 299.5,130.5 C 299.897,129.475 300.563,129.308 301.5,130C 300.906,130.464 300.239,130.631 299.5,130.5 Z"/></g>
<g><path style="opacity:0.012" fill="#fefffe" d="M 192.5,131.5 C 193.833,132.167 193.833,132.167 192.5,131.5 Z"/></g>
<g><path style="opacity:0.004" fill="#fefffe" d="M 297.5,132.5 C 297.897,131.475 298.563,131.308 299.5,132C 298.906,132.464 298.239,132.631 297.5,132.5 Z"/></g>
<g><path style="opacity:0.006" fill="#fefffe" d="M 194.5,133.5 C 195.525,133.897 195.692,134.563 195,135.5C 194.536,134.906 194.369,134.239 194.5,133.5 Z"/></g>
<g><path style="opacity:0.004" fill="#fefffe" d="M 295.5,134.5 C 295.897,133.475 296.563,133.308 297.5,134C 296.906,134.464 296.239,134.631 295.5,134.5 Z"/></g>
<g><path style="opacity:0.006" fill="#fefffe" d="M 196.5,135.5 C 197.525,135.897 197.692,136.563 197,137.5C 196.536,136.906 196.369,136.239 196.5,135.5 Z"/></g>
<g><path style="opacity:0.004" fill="#fefffe" d="M 293.5,136.5 C 293.897,135.475 294.563,135.308 295.5,136C 294.906,136.464 294.239,136.631 293.5,136.5 Z"/></g>
<g><path style="opacity:0.004" fill="#fefffe" d="M 198.5,137.5 C 199.833,138.167 199.833,138.167 198.5,137.5 Z"/></g>
<g><path style="opacity:0.004" fill="#fefffe" d="M 289.5,137.5 C 290.833,138.167 290.833,138.167 289.5,137.5 Z"/></g>
<g><path style="opacity:0.004" fill="#fefffe" d="M 202.5,139.5 C 205.001,139.511 205.168,140.178 203,141.5C 202.536,140.906 202.369,140.239 202.5,139.5 Z"/></g>
<g><path style="opacity:0.004" fill="#fefffe" d="M 287.5,139.5 C 290.001,139.511 290.168,140.178 288,141.5C 287.536,140.906 287.369,140.239 287.5,139.5 Z"/></g>
<g><path style="opacity:0.004" fill="#fefffe" d="M 204.5,142.5 C 205.077,141.227 205.743,141.227 206.5,142.5C 206.03,143.463 205.363,143.463 204.5,142.5 Z"/></g>
<g><path style="opacity:0.004" fill="#fefffe" d="M 285.5,141.5 C 286.525,141.897 286.692,142.563 286,143.5C 285.536,142.906 285.369,142.239 285.5,141.5 Z"/></g>
<g><path style="opacity:0.004" fill="#fefffe" d="M 209.5,143.5 C 210.773,144.077 210.773,144.743 209.5,145.5C 208.537,145.03 208.537,144.363 209.5,143.5 Z"/></g>
<g><path style="opacity:0.004" fill="#fefffe" d="M 281.5,143.5 C 282.525,143.897 282.692,144.563 282,145.5C 281.536,144.906 281.369,144.239 281.5,143.5 Z"/></g>
<g><path style="opacity:0.004" fill="#fefffe" d="M 213.5,145.5 C 214.525,145.897 214.692,146.563 214,147.5C 213.536,146.906 213.369,146.239 213.5,145.5 Z"/></g>
<g><path style="opacity:0.004" fill="#fefffe" d="M 277.5,145.5 C 278.525,145.897 278.692,146.563 278,147.5C 277.536,146.906 277.369,146.239 277.5,145.5 Z"/></g>
<g><path style="opacity:0.004" fill="#fefffe" d="M 217.5,148.5 C 218.833,149.167 218.833,149.167 217.5,148.5 Z"/></g>
<g><path style="opacity:0.004" fill="#fefffe" d="M 223.5,150.5 C 224.833,151.167 224.833,151.167 223.5,150.5 Z"/></g>
</svg>
