<?xml version="1.0" encoding="utf-8"?>
<!-- Generator: Adobe Illustrator 24.1.2, SVG Export Plug-In . SVG Version: 6.00 Build 0)  -->
<svg version="1.1" id="Слой_1" xmlns="http://www.w3.org/2000/svg" xmlns:xlink="http://www.w3.org/1999/xlink" x="0px" y="0px"
	 viewBox="0 0 212.6 97.15" style="enable-background:new 0 0 212.6 97.15;" xml:space="preserve">
<style type="text/css">
	.st0{fill:#FFFFFF;}
</style>
<g>
	<path class="st0" d="M151.94,85.3c-11.48,0-21.41-4.9-28.05-12.69h-14.38c8.26,14.76,23.99,24.54,42.43,24.54
		c18.4,0,34.1-9.78,42.34-24.54h-14.35C173.32,80.4,163.42,85.3,151.94,85.3z"/>
	<path class="st0" d="M151.94,11.85c11.39,0,21.21,4.76,27.83,12.42h14.38C185.88,9.66,170.25,0,151.94,0
		c-18.35,0-34.01,9.66-42.3,24.26h14.41C130.69,16.61,140.55,11.85,151.94,11.85z"/>
	<path class="st0" d="M3.98,32.2C1.97,32.2,0,32.22,0,33.15V63.7c0,0.95,1.97,0.97,3.98,0.97c1.99,0,3.96-0.02,3.96-0.97V33.15
		C7.94,32.22,5.97,32.2,3.98,32.2z"/>
	<path class="st0" d="M42.93,33.03c0-0.88-2.04-0.88-4.07-0.88c-2.29,0-4.54,0-4.91,0.81l-7.1,16.75l-7.13-16.75
		c-0.35-0.81-2.64-0.81-4.91-0.81c-2.04,0-4.07,0-4.07,0.88c0,0.09,0.05,0.23,0.12,0.37l14.63,31.1c0.23,0.46,0.83,0.49,1.39,0.49
		c0.49,0,1.11-0.02,1.37-0.49l14.6-31.12C42.88,33.27,42.93,33.15,42.93,33.03z"/>
	<path class="st0" d="M55.17,32.36c-0.23-0.46-0.79-0.46-1.37-0.46c-0.58,0-1.16,0-1.39,0.46L37.56,63.44
		c-0.07,0.14-0.09,0.25-0.09,0.35c0,0.88,1.99,0.88,3.98,0.88c2.24,0,4.47-0.02,4.79-0.76l1.67-4.05h11.83l1.64,4.05
		c0.3,0.74,2.52,0.76,4.77,0.76c1.99,0,4-0.05,4-0.88c0-0.09-0.02-0.21-0.09-0.32L55.17,32.36z M50.75,53.42l3.1-7.22l3.1,7.22
		H50.75z"/>
	<path class="st0" d="M97.08,32.2c-1.99,0-3.96,0-3.96,0.95v16.31L75.67,32.2c-0.35-0.3-0.9-0.3-1.46-0.3c-0.58,0-1.13,0-1.13,0.69
		v31.12c0,0.95,1.97,0.95,3.96,0.95c1.99,0,3.96,0,3.96-0.97V47.78l17.49,16.89c0.32,0.3,0.9,0.3,1.46,0.3c0.58,0,1.11,0,1.11-0.72
		v-31.1C101.06,32.2,99.09,32.2,97.08,32.2z"/>
	<path class="st0" d="M122.72,39.95c2.45,0,5.09,0.74,7.13,2.18c0.12,0.07,0.21,0.12,0.32,0.12c0.79,0,1.74-1.53,2.43-3.15
		c0.42-1,0.93-2.41,0.93-3.33c0-0.37-0.09-0.65-0.3-0.79c-2.99-2.15-6.27-3.01-10.6-3.01c-9.7,0-16.75,7.06-16.75,16.48
		s7.06,16.5,16.75,16.5c4.33,0,7.61-0.93,10.6-3.03c0.23-0.14,0.3-0.46,0.3-0.86c0-0.95-0.49-2.41-0.93-3.42
		c-0.79-1.78-1.71-2.96-2.41-2.96c-0.12,0-0.23,0.02-0.35,0.09c-2.06,1.39-4.67,2.15-7.13,2.15c-4.37,0-8.26-3.45-8.26-8.47
		C114.46,43.4,118.34,39.95,122.72,39.95z"/>
	<path class="st0" d="M151.9,31.97c-9.19,0-16.64,7.38-16.64,16.48c0,9.12,7.45,16.5,16.64,16.5c9.19,0,16.64-7.38,16.64-16.5
		C168.54,39.35,161.09,31.97,151.9,31.97z M151.9,56.85c-4.58,0-8.05-3.7-8.05-8.4c0-4.72,3.47-8.38,8.05-8.38
		c4.58,0,8.03,3.66,8.03,8.38C159.93,53.14,156.48,56.85,151.9,56.85z"/>
	<path class="st0" d="M205.19,32.43c-0.14-0.56-0.69-0.58-1.3-0.58c-0.58,0-1.16,0-1.41,0.42l-10.83,19.14l-10.83-19.14
		c-0.28-0.42-0.83-0.42-1.43-0.42c-0.58,0-1.16,0-1.3,0.58l-7.38,31.08c-0.02,0.07-0.02,0.12-0.02,0.19c0,0.93,2.01,0.93,4.05,0.93
		c2.15,0,4.28,0,4.51-0.83l3.24-15.04l7.91,15.3c0.25,0.44,0.74,0.44,1.25,0.44c0.49,0,0.97,0,1.2-0.44l7.96-15.3l3.24,15.04
		c0.21,0.83,2.34,0.83,4.49,0.83c2.04,0,4.05,0,4.05-0.93c0-0.07,0-0.12-0.02-0.19L205.19,32.43z"/>
</g>
</svg>
